<svg width="25" height="25" viewBox="0 0 25 25" fill="none" xmlns="http://www.w3.org/2000/svg">
<path d="M12.5 12.4998C11.3541 12.4998 10.3732 12.0919 9.55725 11.2759C8.74128 10.4599 8.33329 9.479 8.33329 8.33317C8.33329 7.18734 8.74128 6.20643 9.55725 5.39046C10.3732 4.57449 11.3541 4.1665 12.5 4.1665C13.6458 4.1665 14.6267 4.57449 15.4427 5.39046C16.2586 6.20643 16.6666 7.18734 16.6666 8.33317C16.6666 9.479 16.2586 10.4599 15.4427 11.2759C14.6267 12.0919 13.6458 12.4998 12.5 12.4998ZM4.16663 20.8332V17.9165C4.16663 17.3262 4.31854 16.7837 4.62236 16.2889C4.92617 15.7941 5.32982 15.4165 5.83329 15.1561C6.90968 14.6179 8.00343 14.2142 9.11454 13.9452C10.2257 13.6761 11.3541 13.5415 12.5 13.5415C13.6458 13.5415 14.7743 13.6761 15.8854 13.9452C16.9965 14.2142 18.0902 14.6179 19.1666 15.1561C19.6701 15.4165 20.0737 15.7941 20.3776 16.2889C20.6814 16.7837 20.8333 17.3262 20.8333 17.9165V20.8332H4.16663ZM6.24996 18.7498H18.75V17.9165C18.75 17.7255 18.7022 17.5519 18.6067 17.3957C18.5112 17.2394 18.3854 17.1179 18.2291 17.0311C17.2916 16.5623 16.3454 16.2108 15.3906 15.9764C14.4357 15.742 13.4722 15.6248 12.5 15.6248C11.5277 15.6248 10.5642 15.742 9.60933 15.9764C8.65447 16.2108 7.70829 16.5623 6.77079 17.0311C6.61454 17.1179 6.48867 17.2394 6.39319 17.3957C6.2977 17.5519 6.24996 17.7255 6.24996 17.9165V18.7498ZM12.5 10.4165C13.0729 10.4165 13.5633 10.2125 13.9713 9.80452C14.3793 9.39654 14.5833 8.90609 14.5833 8.33317C14.5833 7.76025 14.3793 7.2698 13.9713 6.86182C13.5633 6.45383 13.0729 6.24984 12.5 6.24984C11.927 6.24984 11.4366 6.45383 11.0286 6.86182C10.6206 7.2698 10.4166 7.76025 10.4166 8.33317C10.4166 8.90609 10.6206 9.39654 11.0286 9.80452C11.4366 10.2125 11.927 10.4165 12.5 10.4165Z" fill="#616161"/>
</svg>
